<?xml version="1.0" encoding="UTF-8"?>
<svg width="1600" height="900" viewBox="0 0 1600 900" xmlns="http://www.w3.org/2000/svg">
  <rect width="1600" height="900" fill="#F5F5F5"/>
  
  <text x="800" y="60" font-family="Inter, Arial" font-size="36" font-weight="200" text-anchor="middle" fill="#1A1A1A">
    Sales Analytics Dashboard
  </text>
  
  <!-- Revenue chart -->
  <g transform="translate(100, 120)">
    <rect width="500" height="300" fill="white" stroke="#DADADA" rx="10" filter="url(#shadow)"/>
    <text x="20" y="35" font-family="Inter, Arial" font-size="20" font-weight="400" fill="#1A1A1A">Revenue Trend</text>
    
    <!-- Chart axes -->
    <line x1="60" y1="260" x2="460" y2="260" stroke="#7A7A7A" stroke-width="1"/>
    <line x1="60" y1="60" x2="60" y2="260" stroke="#7A7A7A" stroke-width="1"/>
    
    <!-- Revenue line -->
    <polyline points="60,240 150,200 240,180 330,140 420,100" fill="none" stroke="#0066CC" stroke-width="3"/>
    
    <!-- Data points -->
    <circle cx="60" cy="240" r="5" fill="#0066CC"/>
    <circle cx="150" cy="200" r="5" fill="#0066CC"/>
    <circle cx="240" cy="180" r="5" fill="#0066CC"/>
    <circle cx="330" cy="140" r="5" fill="#0066CC"/>
    <circle cx="420" cy="100" r="5" fill="#0066CC"/>
    
    <!-- Y-axis labels -->
    <text x="40" y="105" font-family="Inter, Arial" font-size="12" fill="#7A7A7A" text-anchor="end">$10k</text>
    <text x="40" y="185" font-family="Inter, Arial" font-size="12" fill="#7A7A7A" text-anchor="end">$5k</text>
    <text x="40" y="265" font-family="Inter, Arial" font-size="12" fill="#7A7A7A" text-anchor="end">$0</text>
  </g>
  
  <!-- Platform breakdown -->
  <g transform="translate(650, 120)">
    <rect width="400" height="300" fill="white" stroke="#DADADA" rx="10" filter="url(#shadow)"/>
    <text x="20" y="35" font-family="Inter, Arial" font-size="20" font-weight="400" fill="#1A1A1A">Platform Sales</text>
    
    <!-- Pie chart -->
    <g transform="translate(200, 180)">
      <circle r="80" fill="#0066CC"/>
      <path d="M 0,0 L 80,0 A 80,80 0 0,1 -40,69.3 Z" fill="#00AA44"/>
      <path d="M 0,0 L -40,69.3 A 80,80 0 0,1 -40,-69.3 Z" fill="#FF6600"/>
      
      <!-- Labels -->
      <text x="100" y="-50" font-family="Inter, Arial" font-size="14" fill="#1A1A1A">Amazon 45%</text>
      <text x="100" y="0" font-family="Inter, Arial" font-size="14" fill="#1A1A1A">Apple 30%</text>
      <text x="100" y="50" font-family="Inter, Arial" font-size="14" fill="#1A1A1A">Others 25%</text>
    </g>
  </g>
  
  <!-- Key metrics -->
  <g transform="translate(1100, 120)">
    <rect width="400" height="140" fill="white" stroke="#DADADA" rx="10" filter="url(#shadow)"/>
    <text x="20" y="35" font-family="Inter, Arial" font-size="20" font-weight="400" fill="#1A1A1A">Key Metrics</text>
    
    <g transform="translate(20, 60)">
      <text font-family="Inter, Arial" font-size="48" font-weight="200" fill="#0066CC">12,847</text>
      <text y="25" font-family="Inter, Arial" font-size="14" fill="#7A7A7A">Total Sales</text>
    </g>
    
    <g transform="translate(220, 60)">
      <text font-family="Inter, Arial" font-size="48" font-weight="200" fill="#00AA44">4.7</text>
      <text y="25" font-family="Inter, Arial" font-size="14" fill="#7A7A7A">Avg Rating</text>
    </g>
  </g>
  
  <!-- Conversion funnel -->
  <g transform="translate(1100, 280)">
    <rect width="400" height="140" fill="white" stroke="#DADADA" rx="10" filter="url(#shadow)"/>
    <text x="20" y="35" font-family="Inter, Arial" font-size="20" font-weight="400" fill="#1A1A1A">Conversion Funnel</text>
    
    <g transform="translate(50, 60)">
      <rect width="300" height="20" fill="#DADADA" rx="10"/>
      <rect width="300" height="20" fill="#0066CC" rx="10"/>
      <text x="310" y="15" font-family="Inter, Arial" font-size="12" fill="#7A7A7A">Views: 45,230</text>
    </g>
    
    <g transform="translate(80, 90)">
      <rect width="240" height="20" fill="#DADADA" rx="10"/>
      <rect width="200" height="20" fill="#00AA44" rx="10"/>
      <text x="250" y="15" font-family="Inter, Arial" font-size="12" fill="#7A7A7A">Samples: 12,450</text>
    </g>
  </g>
  
  <!-- Reader engagement -->
  <g transform="translate(100, 450)">
    <rect width="950" height="300" fill="white" stroke="#DADADA" rx="10" filter="url(#shadow)"/>
    <text x="20" y="35" font-family="Inter, Arial" font-size="20" font-weight="400" fill="#1A1A1A">Reader Engagement</text>
    
    <!-- Heatmap visualization -->
    <g transform="translate(50, 80)">
      <text font-family="Inter, Arial" font-size="14" fill="#7A7A7A">Reading Completion by Chapter</text>
      
      <!-- Chapter bars -->
      
          <g transform="translate(0, 30)">
            <rect width="60" height="150" y="0" fill="#0066CC" opacity="1" rx="5"/>
            <text x="30" y="170" font-family="Inter, Arial" font-size="12" fill="#7A7A7A" text-anchor="middle">Ch 1</text>
            <text x="30" y="-5" font-family="Inter, Arial" font-size="12" fill="#1A1A1A" text-anchor="middle">100%</text>
          </g>
        
          <g transform="translate(80, 30)">
            <rect width="60" height="140" y="10" fill="#0066CC" opacity="0.92" rx="5"/>
            <text x="30" y="170" font-family="Inter, Arial" font-size="12" fill="#7A7A7A" text-anchor="middle">Ch 2</text>
            <text x="30" y="5" font-family="Inter, Arial" font-size="12" fill="#1A1A1A" text-anchor="middle">93%</text>
          </g>
        
          <g transform="translate(160, 30)">
            <rect width="60" height="130" y="20" fill="#0066CC" opacity="0.84" rx="5"/>
            <text x="30" y="170" font-family="Inter, Arial" font-size="12" fill="#7A7A7A" text-anchor="middle">Ch 3</text>
            <text x="30" y="15" font-family="Inter, Arial" font-size="12" fill="#1A1A1A" text-anchor="middle">86%</text>
          </g>
        
          <g transform="translate(240, 30)">
            <rect width="60" height="120" y="30" fill="#0066CC" opacity="0.76" rx="5"/>
            <text x="30" y="170" font-family="Inter, Arial" font-size="12" fill="#7A7A7A" text-anchor="middle">Ch 4</text>
            <text x="30" y="25" font-family="Inter, Arial" font-size="12" fill="#1A1A1A" text-anchor="middle">79%</text>
          </g>
        
          <g transform="translate(320, 30)">
            <rect width="60" height="110" y="40" fill="#0066CC" opacity="0.6799999999999999" rx="5"/>
            <text x="30" y="170" font-family="Inter, Arial" font-size="12" fill="#7A7A7A" text-anchor="middle">Ch 5</text>
            <text x="30" y="35" font-family="Inter, Arial" font-size="12" fill="#1A1A1A" text-anchor="middle">72%</text>
          </g>
        
          <g transform="translate(400, 30)">
            <rect width="60" height="100" y="50" fill="#0066CC" opacity="0.6" rx="5"/>
            <text x="30" y="170" font-family="Inter, Arial" font-size="12" fill="#7A7A7A" text-anchor="middle">Ch 6</text>
            <text x="30" y="45" font-family="Inter, Arial" font-size="12" fill="#1A1A1A" text-anchor="middle">65%</text>
          </g>
        
          <g transform="translate(480, 30)">
            <rect width="60" height="90" y="60" fill="#0066CC" opacity="0.52" rx="5"/>
            <text x="30" y="170" font-family="Inter, Arial" font-size="12" fill="#7A7A7A" text-anchor="middle">Ch 7</text>
            <text x="30" y="55" font-family="Inter, Arial" font-size="12" fill="#1A1A1A" text-anchor="middle">58%</text>
          </g>
        
          <g transform="translate(560, 30)">
            <rect width="60" height="80" y="70" fill="#0066CC" opacity="0.43999999999999995" rx="5"/>
            <text x="30" y="170" font-family="Inter, Arial" font-size="12" fill="#7A7A7A" text-anchor="middle">Ch 8</text>
            <text x="30" y="65" font-family="Inter, Arial" font-size="12" fill="#1A1A1A" text-anchor="middle">51%</text>
          </g>
        
          <g transform="translate(640, 30)">
            <rect width="60" height="70" y="80" fill="#0066CC" opacity="0.36" rx="5"/>
            <text x="30" y="170" font-family="Inter, Arial" font-size="12" fill="#7A7A7A" text-anchor="middle">Ch 9</text>
            <text x="30" y="75" font-family="Inter, Arial" font-size="12" fill="#1A1A1A" text-anchor="middle">44%</text>
          </g>
        
          <g transform="translate(720, 30)">
            <rect width="60" height="60" y="90" fill="#0066CC" opacity="0.28" rx="5"/>
            <text x="30" y="170" font-family="Inter, Arial" font-size="12" fill="#7A7A7A" text-anchor="middle">Ch 10</text>
            <text x="30" y="85" font-family="Inter, Arial" font-size="12" fill="#1A1A1A" text-anchor="middle">37%</text>
          </g>
        
    </g>
  </g>
  
  <!-- Predictions -->
  <g transform="translate(1100, 450)">
    <rect width="400" height="300" fill="white" stroke="#DADADA" rx="10" filter="url(#shadow)"/>
    <text x="20" y="35" font-family="Inter, Arial" font-size="20" font-weight="400" fill="#1A1A1A">AI Predictions</text>
    
    <g transform="translate(20, 80)">
      <rect width="360" height="60" fill="#F5F5F5" rx="5"/>
      <text x="20" y="30" font-family="Inter, Arial" font-size="16" font-weight="400" fill="#1A1A1A">Next Month Revenue</text>
      <text x="20" y="50" font-family="Inter, Arial" font-size="24" font-weight="300" fill="#0066CC">$15,200</text>
      <text x="340" y="50" font-family="Inter, Arial" font-size="14" fill="#00AA44" text-anchor="end">↑ 18%</text>
    </g>
    
    <g transform="translate(20, 160)">
      <rect width="360" height="60" fill="#F5F5F5" rx="5"/>
      <text x="20" y="30" font-family="Inter, Arial" font-size="16" font-weight="400" fill="#1A1A1A">Optimal Price Point</text>
      <text x="20" y="50" font-family="Inter, Arial" font-size="24" font-weight="300" fill="#0066CC">$4.99</text>
      <text x="340" y="50" font-family="Inter, Arial" font-size="14" fill="#7A7A7A" text-anchor="end">Max profit</text>
    </g>
  </g>
</svg>