<?xml version="1.0" encoding="UTF-8"?>
<svg width="1800" height="2700" viewBox="0 0 1800 2700" xmlns="http://www.w3.org/2000/svg">
  <defs>
    <linearGradient id="bgGradient" x1="0%" y1="0%" x2="100%" y2="100%">
      <stop offset="0%" style="stop-color:#0066CC;stop-opacity:0.1" />
      <stop offset="50%" style="stop-color:#00AA44;stop-opacity:0.1" />
      <stop offset="100%" style="stop-color:#FF6600;stop-opacity:0.1" />
    </linearGradient>
    <pattern id="grid" width="50" height="50" patternUnits="userSpaceOnUse">
      <path d="M 50 0 L 0 0 0 50" fill="none" stroke="#0066CC" stroke-width="0.5" opacity="0.1"/>
    </pattern>
  </defs>
  
  <!-- Background -->
  <rect width="1800" height="2700" fill="#FFFFFF"/>
  <rect width="1800" height="2700" fill="url(#bgGradient)"/>
  <rect width="1800" height="2700" fill="url(#grid)"/>
  
  <!-- Network visualization -->
  <g transform="translate(900, 1350)">
    <!-- Central node -->
    <circle cx="0" cy="0" r="100" fill="none" stroke="#0066CC" stroke-width="2" opacity="0.3"/>
    
    <!-- Orbital rings -->
    <circle cx="0" cy="0" r="200" fill="none" stroke="#0066CC" stroke-width="1" opacity="0.2"/>
    <circle cx="0" cy="0" r="300" fill="none" stroke="#00AA44" stroke-width="1" opacity="0.2"/>
    <circle cx="0" cy="0" r="400" fill="none" stroke="#FF6600" stroke-width="1" opacity="0.2"/>
    
    <!-- Agent nodes -->
    <g id="agents">
      <circle cx="0" cy="-300" r="50" fill="#0066CC" opacity="0.2"/>
      <circle cx="285" cy="-92" r="50" fill="#00AA44" opacity="0.2"/>
      <circle cx="176" cy="242" r="50" fill="#FF6600" opacity="0.2"/>
      <circle cx="-176" cy="242" r="50" fill="#0066CC" opacity="0.2"/>
      <circle cx="-285" cy="-92" r="50" fill="#00AA44" opacity="0.2"/>
    </g>
    
    <!-- Connection lines -->
    <g stroke="#1A1A1A" stroke-width="0.5" opacity="0.2">
      <line x1="0" y1="0" x2="0" y2="-300"/>
      <line x1="0" y1="0" x2="285" y2="-92"/>
      <line x1="0" y1="0" x2="176" y2="242"/>
      <line x1="0" y1="0" x2="-176" y2="242"/>
      <line x1="0" y1="0" x2="-285" y2="-92"/>
    </g>
  </g>
  
  <!-- Title -->
  <text x="900" y="600" font-family="Inter, Arial, sans-serif" font-size="120" font-weight="100" text-anchor="middle" fill="#1A1A1A">
    The Claude Elite
  </text>
  <text x="900" y="750" font-family="Inter, Arial, sans-serif" font-size="120" font-weight="100" text-anchor="middle" fill="#1A1A1A">
    Pipeline
  </text>
  
  <!-- Subtitle -->
  <text x="900" y="2100" font-family="Inter, Arial, sans-serif" font-size="60" font-weight="300" text-anchor="middle" fill="#1A1A1A">
    Mastering Automated Ebook Creation
  </text>
  
  <!-- Author -->
  <text x="900" y="2250" font-family="Inter, Arial, sans-serif" font-size="48" font-weight="200" text-anchor="middle" fill="#0066CC">
    Claude Elite Team
  </text>
</svg>